<svg width="12" height="12" viewBox="0 0 12 12" fill="none" xmlns="http://www.w3.org/2000/svg">
<path d="M5.1125 1.57031L5.62812 1.05469C5.8625 0.84375 6.21406 0.84375 6.425 1.05469L10.9953 5.60156C11.2062 5.83594 11.2062 6.1875 10.9953 6.39844L6.425 10.9688C6.21406 11.1797 5.8625 11.1797 5.62812 10.9688L5.1125 10.4531C4.90156 10.2188 4.90156 9.86719 5.1125 9.63281L7.94844 6.9375H1.22187C0.89375 6.9375 0.659375 6.70312 0.659375 6.375V5.625C0.659375 5.32031 0.89375 5.0625 1.22187 5.0625H7.94844L5.1125 2.39062C4.90156 2.15625 4.87812 1.80469 5.1125 1.57031Z" fill="white"/>
</svg>
